<svg width="228" height="80" viewBox="0 0 228 80" xmlns="http://www.w3.org/2000/svg">
  <style>
    svg { shape-rendering: crispEdges; }
    .pixel { fill: #3d3d3d; }
    .pixel:nth-child(2n) { fill: #5a5a5a; }
    .pixel-green { fill: #009500ff; }
  </style>

  <rect class="pixel" x="0" y="36" width="8" height="8"/>
  <rect class="pixel" x="4" y="32" width="8" height="8"/>
  <rect class="pixel" x="8" y="28" width="8" height="8"/>
  <rect class="pixel" x="12" y="24" width="8" height="8"/>
  <rect class="pixel" x="16" y="20" width="8" height="8"/>
  <rect class="pixel" x="20" y="16" width="8" height="8"/>
  <rect class="pixel" x="24" y="12" width="8" height="8"/>
  <rect class="pixel" x="28" y="8" width="8" height="8"/>

  <rect class="pixel" x="0" y="36" width="8" height="8"/>
  <rect class="pixel" x="4" y="40" width="8" height="8"/>
  <rect class="pixel" x="8" y="44" width="8" height="8"/>
  <rect class="pixel" x="12" y="48" width="8" height="8"/>
  <rect class="pixel" x="16" y="52" width="8" height="8"/>
  <rect class="pixel" x="20" y="56" width="8" height="8"/>
  <rect class="pixel" x="24" y="60" width="8" height="8"/>
  <rect class="pixel" x="28" y="64" width="8" height="8"/>

  <rect class="pixel" x="166" y="0" width="8" height="8"/>
  <rect class="pixel-green" x="162" y="8" width="8" height="8"/>
  <rect class="pixel" x="158" y="16" width="8" height="8"/>
  <rect class="pixel-green" x="154" y="24" width="8" height="8"/>
  <rect class="pixel" x="150" y="32" width="8" height="8"/>
  <rect class="pixel" x="146" y="40" width="8" height="8"/>
  <rect class="pixel-green" x="142" y="48" width="8" height="8"/>
  <rect class="pixel" x="138" y="56" width="8" height="8"/>
  <rect class="pixel-green" x="134" y="64" width="8" height="8"/>
  <rect class="pixel" x="130" y="72" width="8" height="8"/>

  <rect class="pixel" x="218" y="36" width="8" height="8"/>
  <rect class="pixel" x="214" y="32" width="8" height="8"/>
  <rect class="pixel" x="210" y="28" width="8" height="8"/>
  <rect class="pixel" x="206" y="24" width="8" height="8"/>
  <rect class="pixel" x="202" y="20" width="8" height="8"/>
  <rect class="pixel" x="198" y="16" width="8" height="8"/>
  <rect class="pixel" x="194" y="12" width="8" height="8"/>
  <rect class="pixel" x="190" y="8" width="8" height="8"/>

  <rect class="pixel" x="218" y="36" width="8" height="8"/>
  <rect class="pixel" x="214" y="40" width="8" height="8"/>
  <rect class="pixel" x="210" y="44" width="8" height="8"/>
  <rect class="pixel" x="206" y="48" width="8" height="8"/>
  <rect class="pixel" x="202" y="52" width="8" height="8"/>
  <rect class="pixel" x="198" y="56" width="8" height="8"/>
  <rect class="pixel" x="194" y="60" width="8" height="8"/>
  <rect class="pixel" x="190" y="64" width="8" height="8"/>
</svg>
