<svg width="146" height="80" viewBox="0 0 146 80" xmlns="http://www.w3.org/2000/svg">
  <style>
    svg { shape-rendering: crispEdges; }
    .pixel { fill: #848484; }
    .pixel:nth-child(2n) { fill: #c9c9c9; }
    .pixel-green { fill: #428542; }
  </style>

  <rect class="pixel" x="0" y="36" width="8" height="8"/>
  <rect class="pixel" x="4" y="32" width="8" height="8"/>
  <rect class="pixel" x="8" y="28" width="8" height="8"/>
  <rect class="pixel" x="12" y="24" width="8" height="8"/>
  <rect class="pixel" x="16" y="20" width="8" height="8"/>
  <rect class="pixel" x="20" y="16" width="8" height="8"/>
  <rect class="pixel" x="24" y="12" width="8" height="8"/>
  <rect class="pixel" x="28" y="8" width="8" height="8"/>

  <rect class="pixel" x="0" y="36" width="8" height="8"/>
  <rect class="pixel" x="4" y="40" width="8" height="8"/>
  <rect class="pixel" x="8" y="44" width="8" height="8"/>
  <rect class="pixel" x="12" y="48" width="8" height="8"/>
  <rect class="pixel" x="16" y="52" width="8" height="8"/>
  <rect class="pixel" x="20" y="56" width="8" height="8"/>
  <rect class="pixel" x="24" y="60" width="8" height="8"/>
  <rect class="pixel" x="28" y="64" width="8" height="8"/>

  <rect class="pixel" x="86" y="0" width="8" height="8"/>
  <rect class="pixel-green" x="82" y="8" width="8" height="8"/>
  <rect class="pixel" x="78" y="16" width="8" height="8"/>
  <rect class="pixel-green" x="74" y="24" width="8" height="8"/>
  <rect class="pixel" x="70" y="32" width="8" height="8"/>
  <rect class="pixel" x="66" y="40" width="8" height="8"/>
  <rect class="pixel-green" x="62" y="48" width="8" height="8"/>
  <rect class="pixel" x="58" y="56" width="8" height="8"/>
  <rect class="pixel-green" x="54" y="64" width="8" height="8"/>
  <rect class="pixel" x="50" y="72" width="8" height="8"/>

  <rect class="pixel" x="138" y="36" width="8" height="8"/>
  <rect class="pixel" x="134" y="32" width="8" height="8"/>
  <rect class="pixel" x="130" y="28" width="8" height="8"/>
  <rect class="pixel" x="126" y="24" width="8" height="8"/>
  <rect class="pixel" x="122" y="20" width="8" height="8"/>
  <rect class="pixel" x="118" y="16" width="8" height="8"/>
  <rect class="pixel" x="114" y="12" width="8" height="8"/>
  <rect class="pixel" x="110" y="8" width="8" height="8"/>

  <rect class="pixel" x="138" y="36" width="8" height="8"/>
  <rect class="pixel" x="134" y="40" width="8" height="8"/>
  <rect class="pixel" x="130" y="44" width="8" height="8"/>
  <rect class="pixel" x="126" y="48" width="8" height="8"/>
  <rect class="pixel" x="122" y="52" width="8" height="8"/>
  <rect class="pixel" x="118" y="56" width="8" height="8"/>
  <rect class="pixel" x="114" y="60" width="8" height="8"/>
  <rect class="pixel" x="110" y="64" width="8" height="8"/>
</svg>